<svg width="460" height="40" viewBox="0 0 460 40" fill="none" xmlns="http://www.w3.org/2000/svg">
<g clip-path="url(#clip0_9232_435166)">
<rect x="39.7637" y="20.0469" width="20" height="20" fill="#D21033"/>
<rect y="20.0469" width="20" height="20" fill="#D21033"/>
<rect x="59.5996" y="20.0469" width="20" height="20" fill="white"/>
<rect x="19.9277" y="20.0469" width="20" height="20" fill="white"/>
<rect x="376.973" y="20.0469" width="20" height="20" fill="white"/>
<rect x="218.285" y="20.0469" width="20" height="20" fill="white"/>
<rect x="138.943" y="20.0469" width="20" height="20" fill="white"/>
<rect x="456.316" y="20.0469" width="20" height="20" fill="white"/>
<rect x="297.629" y="20.0469" width="20" height="20" fill="white"/>
<rect x="99.2715" y="20.0469" width="20" height="20" fill="white"/>
<rect x="416.645" y="20.0469" width="20" height="20" fill="white"/>
<rect x="257.957" y="20.0469" width="20" height="20" fill="white"/>
<rect x="178.613" y="20.0469" width="20" height="20" fill="white"/>
<rect x="337.301" y="20.0469" width="20" height="20" fill="white"/>
<rect x="79.4355" y="20.0469" width="20" height="20" fill="#D21033"/>
<rect x="396.807" y="20.0469" width="20" height="20" fill="#D21033"/>
<rect x="238.121" y="20.0469" width="20" height="20" fill="#D21033"/>
<rect x="158.777" y="20.0469" width="20" height="20" fill="#D21033"/>
<rect x="317.465" y="20.0469" width="20" height="20" fill="#D21033"/>
<rect x="119.107" y="20.0469" width="20" height="20" fill="#D21033"/>
<rect x="436.479" y="20.0469" width="20" height="20" fill="#D21033"/>
<rect x="277.793" y="20.0469" width="20" height="20" fill="#D21033"/>
<rect x="198.449" y="20.0469" width="20" height="20" fill="#D21033"/>
<rect x="357.137" y="20.0469" width="20" height="20" fill="#D21033"/>
<rect x="19.8359" width="20" height="20" fill="#D21033"/>
<rect x="39.6719" width="20" height="20" fill="white"/>
<rect width="20" height="20" fill="white"/>
<rect x="357.045" width="20" height="20" fill="white"/>
<rect x="198.357" width="20" height="20" fill="white"/>
<rect x="119.016" width="20" height="20" fill="white"/>
<rect x="436.389" width="20" height="20" fill="white"/>
<rect x="277.701" width="20" height="20" fill="white"/>
<rect x="79.3438" width="20" height="20" fill="white"/>
<rect x="396.717" width="20" height="20" fill="white"/>
<rect x="238.029" width="20" height="20" fill="white"/>
<rect x="158.688" width="20" height="20" fill="white"/>
<rect x="317.373" width="20" height="20" fill="white"/>
<rect x="59.5078" width="20" height="20" fill="#D21033"/>
<rect x="376.881" width="20" height="20" fill="#D21033"/>
<rect x="218.193" width="20" height="20" fill="#D21033"/>
<rect x="138.852" width="20" height="20" fill="#D21033"/>
<rect x="456.223" width="20" height="20" fill="#D21033"/>
<rect x="297.537" width="20" height="20" fill="#D21033"/>
<rect x="99.1777" width="20" height="20" fill="#D21033"/>
<rect x="416.553" width="20" height="20" fill="#D21033"/>
<rect x="257.865" width="20" height="20" fill="#D21033"/>
<rect x="178.523" width="20" height="20" fill="#D21033"/>
<rect x="337.209" width="20" height="20" fill="#D21033"/>
</g>
<defs>
<clipPath id="clip0_9232_435166">
<rect width="460" height="40" fill="white"/>
</clipPath>
</defs>
</svg>
