<svg width="24" height="24" viewBox="0 0 24 24" fill="none" xmlns="http://www.w3.org/2000/svg">
<path d="M10.8333 15.4999H13.1667V17.8333H10.8333V15.4999ZM10.8333 6.16659H13.1667V13.1666H10.8333V6.16659ZM11.9883 0.333252C5.54833 0.333252 0.333328 5.55992 0.333328 11.9999C0.333328 18.4399 5.54833 23.6666 11.9883 23.6666C18.44 23.6666 23.6667 18.4399 23.6667 11.9999C23.6667 5.55992 18.44 0.333252 11.9883 0.333252ZM12 21.3333C6.84333 21.3333 2.66666 17.1566 2.66666 11.9999C2.66666 6.84325 6.84333 2.66659 12 2.66659C17.1567 2.66659 21.3333 6.84325 21.3333 11.9999C21.3333 17.1566 17.1567 21.3333 12 21.3333Z" fill="currentColor"/>
</svg>
