<svg width="23" height="23" viewBox="0 0 23 23" fill="none" xmlns="http://www.w3.org/2000/svg">
<path d="M11.5 7.5C9.29 7.5 7.5 9.29 7.5 11.5C7.5 13.71 9.29 15.5 11.5 15.5C13.71 15.5 15.5 13.71 15.5 11.5C15.5 9.29 13.71 7.5 11.5 7.5ZM20.44 10.5C19.98 6.33 16.67 3.02 12.5 2.56V0.5H10.5V2.56C6.33 3.02 3.02 6.33 2.56 10.5H0.5V12.5H2.56C3.02 16.67 6.33 19.98 10.5 20.44V22.5H12.5V20.44C16.67 19.98 19.98 16.67 20.44 12.5H22.5V10.5H20.44ZM11.5 18.5C7.63 18.5 4.5 15.37 4.5 11.5C4.5 7.63 7.63 4.5 11.5 4.5C15.37 4.5 18.5 7.63 18.5 11.5C18.5 15.37 15.37 18.5 11.5 18.5Z" fill="white"/>
</svg>
